<?xml version="1.0" encoding="utf-8"?>
<!-- Generator: Adobe Illustrator 22.0.0, SVG Export Plug-In . SVG Version: 6.00 Build 0)  -->
<svg version="1.1" id="Calque_1" xmlns="http://www.w3.org/2000/svg" xmlns:xlink="http://www.w3.org/1999/xlink" x="0px" y="0px"
	 viewBox="0 0 482.1 131.5" style="enable-background:new 0 0 482.1 131.5;" xml:space="preserve">
<style type="text/css">
	.st0{fill:#93C01F;}
	.st1{fill:#2F353C;}
	.st2{clip-path:url(#SVGID_2_);fill:url(#SVGID_3_);}
	.st3{clip-path:url(#SVGID_5_);fill:url(#SVGID_6_);}
	.st4{clip-path:url(#SVGID_8_);fill:url(#SVGID_9_);}
	.st5{clip-path:url(#SVGID_11_);fill:url(#SVGID_12_);}
	.st6{clip-path:url(#SVGID_14_);fill:url(#SVGID_15_);}
</style>
<g>
	<g>
		<path class="st0" d="M224.8,111.9c0,2.1,1.2,4,3.7,4c1.7,0,2.8-0.8,3.3-2.3h2.8c-0.7,3-3.2,4.6-6.2,4.6c-4.3,0-6.7-3-6.7-7.2
			c0-3.9,2.5-7.2,6.6-7.2c4.3,0,6.9,3.9,6.4,8H224.8z M231.8,109.9c-0.1-1.9-1.4-3.6-3.4-3.6c-2.1,0-3.5,1.6-3.6,3.6H231.8z"/>
		<path class="st1" d="M237.1,104.3h2.8v2l0.1,0.1c0.9-1.5,2.5-2.4,4.2-2.4c3,0,4.8,1.6,4.8,4.6v9.4h-3v-8.6
			c-0.1-2.1-0.9-3.1-2.7-3.1c-2,0-3.3,1.6-3.3,3.6v8.1h-3V104.3z"/>
		<path class="st1" d="M250.9,104.3h2.3v-4.1h3v4.1h2.7v2.2h-2.7v7.3c0,1.2,0.1,1.9,1.5,1.9c0.4,0,0.8,0,1.3-0.1v2.3
			c-0.7,0.1-1.3,0.2-2,0.2c-3.1,0-3.7-1.2-3.8-3.5v-8.1h-2.3V104.3z"/>
		<path class="st1" d="M261,104.3h2.8v2.6h0.1c0.3-1.5,2.1-3,4-3c0.7,0,0.9,0.1,1.1,0.1v2.9c-0.4-0.1-0.9-0.1-1.3-0.1
			c-2.1,0-3.7,1.7-3.7,4.7v6.5h-3V104.3z"/>
		<path class="st1" d="M272.2,111.9c0,2.1,1.2,4,3.7,4c1.7,0,2.8-0.8,3.3-2.3h2.8c-0.7,3-3.2,4.6-6.2,4.6c-4.3,0-6.7-3-6.7-7.2
			c0-3.9,2.5-7.2,6.6-7.2c4.3,0,6.9,3.9,6.4,8H272.2z M279.2,109.9c-0.1-1.9-1.4-3.6-3.4-3.6c-2.1,0-3.5,1.6-3.6,3.6H279.2z"/>
		<path class="st1" d="M284.6,104.3h2.9v1.9h0.1c0.8-1.6,2.5-2.2,4.2-2.2c4.3,0,6.4,3.3,6.4,7.3c0,3.7-1.8,7.1-5.9,7.1
			c-1.7,0-3.6-0.6-4.6-2.1h-0.1v6.8h-3V104.3z M291.3,106.3c-2.5,0-3.8,1.9-3.8,4.8c0,2.7,1.4,4.8,3.8,4.8c2.7,0,3.8-2.4,3.8-4.8
			C295.1,108.6,293.8,106.3,291.3,106.3"/>
		<path class="st1" d="M300.6,104.3h2.8v2.6h0.1c0.3-1.5,2.1-3,4-3c0.7,0,0.9,0.1,1.1,0.1v2.9c-0.4-0.1-0.9-0.1-1.3-0.1
			c-2.1,0-3.7,1.7-3.7,4.7v6.5h-3V104.3z"/>
		<path class="st1" d="M310,99.1h3v2.8h-3V99.1z M310,104.3h3v13.6h-3V104.3z"/>
		<path class="st1" d="M318.6,113.6c0.2,1.7,1.5,2.4,3.1,2.4c1.1,0,3.1-0.2,3-1.8c-0.1-1.6-2.3-1.8-4.5-2.3c-2.2-0.5-4.4-1.3-4.4-4
			c0-3,3.2-3.9,5.7-3.9c2.8,0,5.3,1.2,5.7,4.2h-3.1c-0.3-1.4-1.5-1.8-2.8-1.8c-0.9,0-2.5,0.2-2.5,1.4c0,1.5,2.2,1.7,4.4,2.2
			c2.2,0.5,4.4,1.3,4.4,4c0,3.2-3.3,4.4-6.1,4.4c-3.4,0-6-1.5-6-4.7H318.6z"/>
		<path class="st1" d="M332.3,111.9c0,2.1,1.2,4,3.7,4c1.7,0,2.8-0.8,3.3-2.3h2.8c-0.7,3-3.2,4.6-6.2,4.6c-4.3,0-6.7-3-6.7-7.2
			c0-3.9,2.5-7.2,6.6-7.2c4.3,0,6.9,3.9,6.4,8H332.3z M339.4,109.9c-0.1-1.9-1.4-3.6-3.4-3.6c-2.1,0-3.5,1.6-3.6,3.6H339.4z"/>
		<path class="st0" d="M363.4,114.9c0,0.7,0.2,1,0.7,1c0.2,0,0.4,0,0.7-0.1v2.1c-0.4,0.2-1.4,0.3-1.9,0.3c-1.2,0-2.1-0.4-2.3-1.7
			c-1.2,1.2-3.1,1.7-4.7,1.7c-2.5,0-4.7-1.3-4.7-4c0-3.4,2.7-4,5.3-4.2c2.2-0.4,4.1-0.2,4.1-1.9c0-1.6-1.6-1.8-2.8-1.8
			c-1.7,0-2.9,0.7-3,2.2h-3c0.2-3.5,3.2-4.5,6.2-4.5c2.7,0,5.5,1.1,5.5,4V114.9z M360.4,111.1c-0.9,0.6-2.4,0.6-3.7,0.8
			c-1.3,0.2-2.5,0.7-2.5,2.3c0,1.3,1.7,1.7,2.8,1.7c1.3,0,3.4-0.7,3.4-2.6V111.1z"/>
		<path class="st1" d="M379.5,117.9h-2.8v-1.8h-0.1c-0.8,1.6-2.5,2.2-4.2,2.2c-4.3,0-6.4-3.2-6.4-7.3c0-4.9,2.9-7.1,5.9-7.1
			c1.7,0,3.6,0.6,4.5,2.1h0.1v-7h3V117.9z M372.8,115.9c2.7,0,3.8-2.5,3.8-4.8c0-3-1.5-4.8-3.8-4.8c-2.8,0-3.8,2.5-3.8,5
			C369,113.6,370.2,115.9,372.8,115.9"/>
		<path class="st1" d="M394.2,114.9c0,0.7,0.2,1,0.7,1c0.2,0,0.4,0,0.7-0.1v2.1c-0.5,0.2-1.4,0.3-1.9,0.3c-1.2,0-2.1-0.4-2.3-1.7
			c-1.2,1.2-3.1,1.7-4.7,1.7c-2.5,0-4.7-1.3-4.7-4c0-3.4,2.7-4,5.3-4.2c2.2-0.4,4.1-0.2,4.1-1.9c0-1.6-1.6-1.8-2.8-1.8
			c-1.7,0-2.9,0.7-3,2.2h-3c0.2-3.5,3.2-4.5,6.2-4.5c2.7,0,5.5,1.1,5.5,4V114.9z M391.2,111.1c-0.9,0.6-2.4,0.6-3.7,0.8
			c-1.3,0.2-2.5,0.7-2.5,2.3c0,1.3,1.7,1.7,2.8,1.7c1.3,0,3.4-0.7,3.4-2.6V111.1z"/>
		<path class="st1" d="M397.5,104.3h2.8v1.9h0.1c0.8-1.6,2.5-2.2,4.2-2.2c4.3,0,6.4,3.3,6.4,7.3c0,3.7-1.9,7.1-5.9,7.1
			c-1.7,0-3.6-0.6-4.6-2.1h-0.1v6.8h-3V104.3z M404.3,106.3c-2.5,0-3.8,1.9-3.8,4.8c0,2.7,1.4,4.8,3.8,4.8c2.7,0,3.8-2.4,3.8-4.8
			C408,108.6,406.7,106.3,404.3,106.3"/>
		<path class="st1" d="M412.2,104.3h2.3v-4.1h3v4.1h2.7v2.2h-2.7v7.3c0,1.2,0.1,1.9,1.5,1.9c0.4,0,0.8,0,1.3-0.1v2.3
			c-0.7,0.1-1.3,0.2-2,0.2c-3.1,0-3.7-1.2-3.8-3.5v-8.1h-2.3V104.3z"/>
		<path class="st1" d="M424.7,111.9c0,2.1,1.2,4,3.7,4c1.7,0,2.8-0.8,3.3-2.3h2.9c-0.7,3-3.2,4.6-6.2,4.6c-4.3,0-6.7-3-6.7-7.2
			c0-3.9,2.5-7.2,6.6-7.2c4.3,0,6.9,3.9,6.4,8H424.7z M431.7,109.9c-0.1-1.9-1.4-3.6-3.4-3.6c-2.1,0-3.5,1.6-3.6,3.6H431.7z
			 M428.5,98.6h3.6l-3.7,3.8h-2.2L428.5,98.6z"/>
		<path class="st1" d="M439.4,111.9c0,2.1,1.2,4,3.7,4c1.7,0,2.8-0.8,3.3-2.3h2.8c-0.7,3-3.2,4.6-6.2,4.6c-4.3,0-6.7-3-6.7-7.2
			c0-3.9,2.5-7.2,6.6-7.2c4.3,0,6.9,3.9,6.4,8H439.4z M446.4,109.9c-0.1-1.9-1.4-3.6-3.4-3.6c-2.1,0-3.5,1.6-3.6,3.6H446.4z"/>
		<path class="st1" d="M192.2,92.2c0,13.6-5.5,24.1-27.1,24.1c-7.9,0-12.9-1.4-16.4-2.3v-13c2.9,2.2,10.1,7.5,17.6,7.5
			c10.7,0,11.9-7.7,11.9-17.8v-8.2H178c-2,3.6-4.5,8-13.1,8c-14.9,0-20.2-11.6-20.2-28.4c0-13.9,4.7-27.6,18.8-27.6
			c8.6,0,12.3,6.2,14.5,10.1h0.2v-8.9h13.9V92.2z M169.1,82.4c8.4,0,8.4-12.1,8.4-19.2c0-8.3-0.3-20.3-8.5-20.3
			c-8.2,0-9.2,11.9-9.2,19.9C159.8,70.4,160.9,82.4,169.1,82.4"/>
		<path class="st1" d="M249.9,87.8c-6.2,2.6-9.7,3.8-17.7,3.8c-14.4,0-27.9-8.3-27.9-31.2c0-15.1,6.3-26.1,24.4-26.1
			c15.2,0,22.2,8.1,22.2,20.6V57h-32.7c0,9.3,5.3,27.5,21,27.5c3.7,0,7.4-1.2,10.7-2.4V87.8z M237.4,51.2c0-3.9-1.6-11.5-9.2-11.5
			c-8.1,0-9.7,9-10,11.5H237.4z"/>
		<path class="st1" d="M293.5,81.1h-0.2c-1.6,3.5-5.9,10.5-15,10.5c-13.7,0-18.3-12.9-18.3-28.3c0-18.4,5.9-29,20-29
			c8.9,0,11.6,5.4,13.2,8.6h0.2v-32h13.9v79.5h-13.9V81.1z M284.5,83c7.9,0,8.3-12.3,8.3-19.7c0-8.5-0.3-21.1-8.5-21.1
			c-8.2,0-9.2,12.6-9.2,21.1C275.1,70.7,276.1,83,284.5,83"/>
		<path class="st0" d="M365.1,87.8c-6.2,2.6-9.7,3.8-17.7,3.8c-14.4,0-27.9-8.3-27.9-31.2c0-15.1,6.3-26.1,24.4-26.1
			c15.2,0,22.2,8.1,22.2,20.6V57h-32.7c0,9.3,5.3,27.5,21,27.5c3.7,0,7.4-1.2,10.7-2.4V87.8z M352.7,51.2c0-3.9-1.6-11.5-9.2-11.5
			c-8.1,0-9.7,9-10,11.5H352.7z"/>
		<path class="st0" d="M406.8,83.1h-0.2c-1.5,2.6-6.9,8.5-15.5,8.5c-8.6,0-15.3-5.8-15.3-13.7c0-16.9,23.3-18,31.1-18.3v-9.2
			c0-8.1-2.4-10.7-6.9-10.7c-7.3,0-7.1,8.6-7.4,12.2h-14.9c0-11.5,7.7-17.6,22.3-17.6c17.3,0,20.7,8.1,20.7,19v37.1h-13.9V83.1z
			 M406.8,65c-4.7,0.5-16.7,2-16.7,10.9c0,4.6,2.3,7.7,6.3,7.7c6.6,0,10.4-6.9,10.4-14.6V65z"/>
		<path class="st1" d="M464.5,47.7c-3.2-2.8-7.8-6.3-13.4-6.3c-2.9,0-6.8,1.4-6.8,5.2c0,5.3,10.1,9.2,15.5,13.8
			c6,5,8.2,8.4,8.2,14.7c0,12-9.8,16.5-21.1,16.5c-6.7,0-12-1.5-14.4-2.2V77c2.5,2.2,8.1,6.7,14.6,6.7c5.1,0,8.2-2.2,8.2-5.5
			c0-5.5-10.2-9.6-15.8-14.2c-6-5.1-7.5-8.2-7.5-13.5c0-8.3,5.6-16.2,19.6-16.2c6,0,10.8,1.6,12.8,2.1V47.7z"/>
		<path class="st1" d="M83.2,91.9V69.2H60.5C60.5,81.8,70.7,91.9,83.2,91.9"/>
		<path class="st1" d="M121.7,57.8H87.7v34.1C106.5,91.9,121.7,76.7,121.7,57.8"/>
	</g>
	<g>
		<defs>
			<path id="SVGID_1_" d="M75.9,53.2h45.4c0-25.1-20.3-45.4-45.4-45.4V53.2z"/>
		</defs>
		<clipPath id="SVGID_2_">
			<use xlink:href="#SVGID_1_"  style="overflow:visible;"/>
		</clipPath>
		
			<radialGradient id="SVGID_3_" cx="-170.0694" cy="-332.7574" r="1.7863" gradientTransform="matrix(16.2916 0 0 16.2916 2846.5737 5428.9019)" gradientUnits="userSpaceOnUse">
			<stop  offset="0" style="stop-color:#5E646B"/>
			<stop  offset="1.123600e-02" style="stop-color:#5E646B"/>
			<stop  offset="1" style="stop-color:#2F353C"/>
		</radialGradient>
		<rect x="75.9" y="7.8" class="st2" width="45.4" height="45.4"/>
	</g>
	<g>
		<defs>
			<path id="SVGID_4_" d="M75.9,15.3c11.6,0,22.2,4.3,30.2,11.5c-7.5-8.5-18.2-14.1-30.2-15.1V15.3z"/>
		</defs>
		<clipPath id="SVGID_5_">
			<use xlink:href="#SVGID_4_"  style="overflow:visible;"/>
		</clipPath>
		
			<radialGradient id="SVGID_6_" cx="-173.8053" cy="-339.6066" r="1.7863" gradientTransform="matrix(22.1433 0 0 22.1433 3920.7744 7535.3057)" gradientUnits="userSpaceOnUse">
			<stop  offset="0" style="stop-color:#A2A8AF"/>
			<stop  offset="1" style="stop-color:#2F353C"/>
		</radialGradient>
		<rect x="75.9" y="11.7" class="st3" width="30.2" height="15.1"/>
	</g>
	<g>
		<defs>
			<path id="SVGID_7_" d="M15.1,64.6h56.8V7.8C40.5,7.8,15.1,33.2,15.1,64.6"/>
		</defs>
		<clipPath id="SVGID_8_">
			<use xlink:href="#SVGID_7_"  style="overflow:visible;"/>
		</clipPath>
		
			<radialGradient id="SVGID_9_" cx="-172.1641" cy="-336.2316" r="1.7863" gradientTransform="matrix(18.8796 0 0 18.8796 3317.8813 6362.3618)" gradientUnits="userSpaceOnUse">
			<stop  offset="0" style="stop-color:#DBE076"/>
			<stop  offset="1" style="stop-color:#93C01F"/>
		</radialGradient>
		<rect x="15.1" y="7.8" class="st4" width="56.8" height="56.8"/>
	</g>
	<g>
		<defs>
			<path id="SVGID_10_" d="M33.7,30.1c10.1-9.2,23.5-14.8,38.2-14.8v-3.7C56.8,12.7,43.3,19.6,33.7,30.1"/>
		</defs>
		<clipPath id="SVGID_11_">
			<use xlink:href="#SVGID_10_"  style="overflow:visible;"/>
		</clipPath>
		
			<radialGradient id="SVGID_12_" cx="-168.2259" cy="-390.2978" r="1.7863" gradientTransform="matrix(14.2674 0 0 -14.2674 2472.0322 -5534.478)" gradientUnits="userSpaceOnUse">
			<stop  offset="0" style="stop-color:#DBE076"/>
			<stop  offset="1" style="stop-color:#93C01F"/>
		</radialGradient>
		<rect x="33.7" y="11.7" class="st5" width="38.2" height="18.4"/>
	</g>
	<g>
		<defs>
			<path id="SVGID_13_" d="M33.7,30.1c10.1-9.2,23.5-14.8,38.2-14.8v-3.7C56.8,12.7,43.3,19.6,33.7,30.1"/>
		</defs>
		<clipPath id="SVGID_14_">
			<use xlink:href="#SVGID_13_"  style="overflow:visible;"/>
		</clipPath>
		
			<radialGradient id="SVGID_15_" cx="-168.2259" cy="-328.9996" r="1.7863" gradientTransform="matrix(14.2674 0 0 14.2674 2472.0325 4701.7002)" gradientUnits="userSpaceOnUse">
			<stop  offset="0" style="stop-color:#DBE076"/>
			<stop  offset="1" style="stop-color:#93C01F"/>
		</radialGradient>
		<rect x="33.7" y="11.7" class="st6" width="38.2" height="18.4"/>
	</g>
</g>
</svg>
